<?xml version="1.0" standalone="no"?>
<!DOCTYPE svg PUBLIC "-//W3C//DTD SVG 20010904//EN"
 "http://www.w3.org/TR/2001/REC-SVG-20010904/DTD/svg10.dtd">
<svg version="1.0" xmlns="http://www.w3.org/2000/svg"
 width="700.000000pt" height="700.000000pt" viewBox="0 0 700.000000 700.000000"
 preserveAspectRatio="xMidYMid meet">
<metadata>
Created by potrace 1.14, written by Peter Selinger 2001-2017
</metadata>
<g transform="translate(0.000000,700.000000) scale(0.100000,-0.100000)"
fill="#000000" stroke="none">
<path d="M3216 6405 c-71 -25 -121 -75 -145 -144 -39 -117 39 -248 164 -277
l40 -10 0 -222 c0 -215 -1 -223 -20 -227 -11 -2 -54 -9 -95 -16 -104 -16 -98
-15 -207 -44 -229 -63 -495 -193 -675 -331 l-60 -47 -158 158 -158 157 29 47
c31 50 39 99 25 170 -16 84 -116 161 -210 161 -79 0 -105 -18 -290 -199 -98
-97 -189 -193 -203 -214 -48 -76 -40 -186 20 -254 70 -80 178 -99 274 -47 l47
25 158 -158 c156 -155 157 -157 139 -178 -23 -26 -119 -166 -153 -225 -120
-209 -224 -496 -252 -701 -9 -63 -17 -103 -21 -107 -1 -2 -81 -3 -176 -3 -288
-1 -269 -2 -269 24 0 27 -32 94 -58 124 -77 88 -239 89 -318 1 -57 -62 -59
-71 -58 -368 0 -260 1 -277 21 -315 48 -90 138 -135 235 -116 87 16 161 90
175 173 5 36 8 38 42 39 144 2 405 -1 408 -5 3 -3 7 -20 9 -38 3 -31 27 -167
37 -213 54 -236 169 -487 322 -704 36 -51 65 -95 65 -99 0 -4 -69 -76 -153
-160 l-153 -153 -54 28 c-95 49 -197 30 -268 -51 -59 -67 -67 -178 -19 -253
14 -21 105 -117 203 -214 197 -194 214 -204 315 -197 165 12 251 199 156 339
l-23 34 157 158 158 157 58 -44 c211 -159 476 -284 743 -349 58 -15 125 -29
150 -32 25 -3 54 -8 65 -10 11 -2 25 -4 31 -4 12 -1 18 -450 6 -452 -72 -8
-125 -38 -165 -91 -77 -104 -51 -233 62 -313 l43 -30 272 -2 c313 -3 331 0
396 75 109 123 47 317 -114 353 l-51 11 0 218 c0 120 3 221 5 224 3 2 23 7 45
10 237 31 486 112 695 224 52 27 203 125 306 197 11 8 49 -25 170 -146 l156
-156 -26 -46 c-33 -55 -39 -125 -17 -186 20 -55 86 -116 142 -131 47 -13 128
-6 162 13 12 7 102 91 201 187 187 184 226 237 226 310 0 87 -46 162 -123 201
-70 36 -158 28 -226 -20 l-27 -20 -159 159 -158 158 45 58 c108 141 216 339
283 518 37 101 89 296 100 376 9 65 16 104 19 107 2 3 250 5 379 4 63 -1 67
-2 67 -23 0 -27 32 -95 57 -123 62 -69 177 -90 261 -47 46 25 97 87 110 136 5
17 8 148 8 291 -2 231 -4 264 -20 295 -69 132 -215 165 -333 77 -44 -34 -68
-73 -78 -131 -7 -35 -8 -36 -54 -37 -164 -2 -394 0 -398 4 -2 3 -6 16 -7 29
-38 322 -174 666 -373 941 l-65 90 158 158 157 158 31 -24 c100 -75 254 -43
316 66 31 57 36 139 10 197 -23 50 -355 389 -409 417 -76 39 -200 16 -257 -47
-71 -77 -78 -208 -16 -281 18 -20 26 -10 -172 -208 l-129 -128 -41 30 c-207
156 -467 286 -697 348 -79 21 -99 26 -194 42 -33 5 -73 12 -90 15 -16 3 -32 7
-34 10 -3 2 -5 103 -6 224 l0 220 25 0 c36 1 100 33 136 69 80 79 76 231 -8
307 -61 56 -73 58 -355 60 -183 0 -273 -3 -297 -11z m479 -1460 c72 -9 210
-42 280 -66 121 -42 297 -134 387 -203 14 -12 41 -32 59 -46 47 -36 156 -146
210 -210 86 -104 163 -238 230 -395 28 -68 57 -178 78 -295 16 -90 20 -333 7
-415 -14 -91 -19 -118 -42 -205 -30 -110 -36 -127 -110 -275 -164 -330 -472
-596 -827 -715 -48 -17 -102 -32 -119 -35 -17 -3 -34 -8 -38 -10 -4 -3 -25 -7
-46 -10 -22 -3 -50 -8 -64 -10 -50 -10 -297 -12 -360 -4 -291 39 -531 138
-742 306 -279 222 -455 511 -528 864 -31 149 -34 395 -6 533 3 11 9 45 15 74
30 152 142 394 246 533 71 95 174 204 250 264 27 22 56 45 63 52 24 23 182
114 254 147 147 67 272 102 448 125 65 8 284 6 355 -4z"/>
<path d="M2925 4660 c-128 -30 -225 -153 -225 -285 0 -200 204 -342 390 -272
59 22 135 91 165 151 29 58 27 184 -4 248 -27 56 -87 113 -145 138 -46 21
-136 31 -181 20z"/>
<path d="M3904 4644 c-220 -89 -247 -391 -46 -516 20 -12 41 -24 47 -25 141
-36 239 -12 319 78 204 226 -39 577 -320 463z"/>
<path d="M2400 3781 c-167 -51 -257 -241 -187 -394 32 -71 66 -108 129 -142
46 -26 63 -30 133 -30 95 0 150 21 208 80 57 57 80 109 83 190 3 90 -21 157
-80 218 -70 72 -195 105 -286 78z"/>
<path d="M3420 3781 c-79 -26 -143 -79 -182 -153 -33 -63 -33 -194 1 -258 94
-177 329 -214 467 -73 138 143 99 374 -80 465 -44 23 -162 34 -206 19z"/>
<path d="M4427 3776 c-56 -21 -112 -62 -142 -106 -141 -203 11 -474 256 -457
149 10 256 118 267 269 8 119 -51 223 -159 279 -55 28 -167 36 -222 15z"/>
<path d="M2883 2894 c-117 -47 -189 -162 -181 -287 7 -111 63 -194 166 -244
141 -69 326 -1 388 144 101 236 -136 482 -373 387z"/>
<path d="M3922 2901 c-209 -71 -270 -323 -117 -477 218 -219 579 6 479 299
-48 142 -220 226 -362 178z"/>
</g>
</svg>
